<!--?xml version="1.0" standalone="no"?-->
              <svg id="sw-js-blob-svg" viewBox="0 0 100 100" xmlns="http://www.w3.org/2000/svg" version="1.1">
                    <defs> 
                        <linearGradient id="sw-gradient" x1="0" x2="1" y1="1" y2="0">
                            <stop id="stop1" stop-color="rgba(231.165, 117.722, 64.031, 1)" offset="0%"></stop>
                            <stop id="stop2" stop-color="rgba(174.245, 116.324, 20.72, 1)" offset="100%"></stop>
                        </linearGradient>
                    </defs>
                <path fill="url(#sw-gradient)" d="M21.6,-28.9C28.6,-24.6,35.4,-19.1,37.8,-12.2C40.2,-5.2,38.3,3.3,35,10.6C31.6,18,26.8,24.1,20.7,29.5C14.6,34.8,7.3,39.4,-0.4,39.9C-8.1,40.4,-16.1,36.9,-21.6,31.3C-27.1,25.8,-30,18.2,-32.3,10.6C-34.6,3,-36.4,-4.7,-35.2,-12.4C-34.1,-20.2,-30,-27.9,-23.6,-32.4C-17.3,-36.9,-8.6,-38.2,-0.7,-37.3C7.3,-36.3,14.5,-33.2,21.6,-28.9Z" width="100%" height="100%" transform="translate(50 50)" stroke-width="0" style="transition: 0.3s;"></path>
              </svg>